HIERARCHY
ROOT hip
{
  OFFSET 0 0 0
  CHANNELS 6 Xposition Yposition Zposition Zrotation Yrotation Xrotation
  JOINT abdomen
  {
    OFFSET 0 20.6881 -0.73152
    CHANNELS 3 Zrotation Xrotation Yrotation
    JOINT chest
    {
      OFFSET 0 11.7043 -0.48768
      CHANNELS 3 Zrotation Xrotation Yrotation
      JOINT neck
      {
        OFFSET 0 22.1894 -2.19456
        CHANNELS 3 Zrotation Xrotation Yrotation
        JOINT head
        {
          OFFSET -0.24384 7.07133 1.2192
          CHANNELS 3 Zrotation Xrotation Yrotation
          JOINT leftEye
          {
            OFFSET 4.14528 8.04674 8.04672
            CHANNELS 3 Zrotation Xrotation Yrotation
            End Site
            {
              OFFSET 1 0 0
            }
          }
          JOINT rightEye
          {
            OFFSET -3.6576 8.04674 8.04672
            CHANNELS 3 Zrotation Xrotation Yrotation
            End Site
            {
              OFFSET 1 0 0
            }
          }
        }
      }
      JOINT rCollar
      {
        OFFSET -2.68224 19.2634 -4.8768
        CHANNELS 3 Zrotation Xrotation Yrotation
        JOINT rShldr
        {
          OFFSET -8.77824 -1.95073 1.46304
          CHANNELS 3 Zrotation Xrotation Yrotation
          JOINT rForeArm
          {
            OFFSET -28.1742 -1.7115 0.48768
            CHANNELS 3 Zrotation Xrotation Yrotation
            JOINT rHand
            {
              OFFSET -22.5879 0.773209 7.07136
              CHANNELS 3 Zrotation Xrotation Yrotation
              JOINT rThumb1
              {
                OFFSET -1.2192 -0.487915 3.41376
                CHANNELS 3 Zrotation Xrotation Yrotation
                JOINT rThumb2
                {
                  OFFSET -3.37035 -0.52449 3.41376
                  CHANNELS 3 Zrotation Xrotation Yrotation
                  End Site
                  {
                    OFFSET -1.78271 -1.18214 1.43049
                  }
                }
              }
              JOINT rIndex1
              {
                OFFSET -7.75947 0.938293 5.60832
                CHANNELS 3 Zrotation Xrotation Yrotation
                JOINT rIndex2
                {
                  OFFSET -2.54057 -0.884171 1.56538
                  CHANNELS 3 Zrotation Xrotation Yrotation
                  End Site
                  {
                    OFFSET -1.62519 -0.234802 1.16502
                  }
                }
              }
              JOINT rMid1
              {
                OFFSET -8.24714 1.18213 3.41376
                CHANNELS 3 Zrotation Xrotation Yrotation
                JOINT rMid2
                {
                  OFFSET -3.10165 -0.590103 1.0647
                  CHANNELS 3 Zrotation Xrotation Yrotation
                  End Site
                  {
                    OFFSET -2.48547 -0.328903 0.83742
                  }
                }
              }
              JOINT rRing1
              {
                OFFSET -8.82822 0.546677 1.51678
                CHANNELS 3 Zrotation Xrotation Yrotation
                JOINT rRing2
                {
                  OFFSET -2.60934 -0.819778 -0.0198488
                  CHANNELS 3 Zrotation Xrotation Yrotation
                  End Site
                  {
                    OFFSET -2.33842 -0.294052 0.168128
                  }
                }
              }
              JOINT rPinky1
              {
                OFFSET -8.27202 -0.0477905 -0.4584
                CHANNELS 3 Zrotation Xrotation Yrotation
                JOINT rPinky2
                {
                  OFFSET -1.82734 -0.647385 -0.700984
                  CHANNELS 3 Zrotation Xrotation Yrotation
                  End Site
                  {
                    OFFSET -1.69225 -0.51767 -0.607171
                  }
                }
              }
            }
          }
        }
      }
      JOINT lCollar
      {
        OFFSET 2.68224 19.2634 -4.8768
        CHANNELS 3 Zrotation Xrotation Yrotation
        JOINT lShldr
        {
          OFFSET 8.77824 -1.95073 1.46304
          CHANNELS 3 Zrotation Xrotation Yrotation
          JOINT lForeArm
          {
            OFFSET 28.1742 -1.7115 0.48768
            CHANNELS 3 Zrotation Xrotation Yrotation
            JOINT lHand
            {
              OFFSET 22.5879 0.773209 7.07136
              CHANNELS 3 Zrotation Xrotation Yrotation
              JOINT lThumb1
              {
                OFFSET 1.2192 -0.487915 3.41376
                CHANNELS 3 Zrotation Xrotation Yrotation
                JOINT lThumb2
                {
                  OFFSET 3.37035 -0.52449 3.41376
                  CHANNELS 3 Zrotation Xrotation Yrotation
                  End Site
                  {
                    OFFSET 1.78271 -1.18214 1.43049
                  }
                }
              }
              JOINT lIndex1
              {
                OFFSET 7.75947 0.938293 5.60832
                CHANNELS 3 Zrotation Xrotation Yrotation
                JOINT lIndex2
                {
                  OFFSET 2.54057 -0.884171 1.56538
                  CHANNELS 3 Zrotation Xrotation Yrotation
                  End Site
                  {
                    OFFSET 1.62519 -0.234802 1.16502
                  }
                }
              }
              JOINT lMid1
              {
                OFFSET 8.24714 1.18213 3.41376
                CHANNELS 3 Zrotation Xrotation Yrotation
                JOINT lMid2
                {
                  OFFSET 3.10165 -0.590103 1.0647
                  CHANNELS 3 Zrotation Xrotation Yrotation
                  End Site
                  {
                    OFFSET 2.48547 -0.328903 0.83742
                  }
                }
              }
              JOINT lRing1
              {
                OFFSET 8.82822 0.546677 1.51678
                CHANNELS 3 Zrotation Xrotation Yrotation
                JOINT lRing2
                {
                  OFFSET 2.60934 -0.819778 -0.0198488
                  CHANNELS 3 Zrotation Xrotation Yrotation
                  End Site
                  {
                    OFFSET 2.33842 -0.294052 0.168128
                  }
                }
              }
              JOINT lPinky1
              {
                OFFSET 8.27202 -0.0477905 -0.4584
                CHANNELS 3 Zrotation Xrotation Yrotation
                JOINT lPinky2
                {
                  OFFSET 1.82734 -0.647385 -0.700984
                  CHANNELS 3 Zrotation Xrotation Yrotation
                  End Site
                  {
                    OFFSET 1.69225 -0.51767 -0.607171
                  }
                }
              }
            }
          }
        }
      }
    }
  }
  JOINT rButtock
  {
    OFFSET -8.77824 4.35084 1.2192
    CHANNELS 3 Zrotation Xrotation Yrotation
    JOINT rThigh
    {
      OFFSET 0 -1.70687 -2.19456
      CHANNELS 3 Zrotation Xrotation Yrotation
      JOINT rShin
      {
        OFFSET 0 -36.8199 0.73152
        CHANNELS 3 Zrotation Xrotation Yrotation
        JOINT rFoot
        {
          OFFSET 0.73152 -45.1104 -5.12064
          CHANNELS 3 Zrotation Xrotation Yrotation
          End Site
          {
            OFFSET -1.1221 -3.69964 12.103
          }
        }
      }
    }
  }
  JOINT lButtock
  {
    OFFSET 8.77824 4.35084 1.2192
    CHANNELS 3 Zrotation Xrotation Yrotation
    JOINT lThigh
    {
      OFFSET 0 -1.70687 -2.19456
      CHANNELS 3 Zrotation Xrotation Yrotation
      JOINT lShin
      {
        OFFSET 0 -36.8199 0.73152
        CHANNELS 3 Zrotation Xrotation Yrotation
        JOINT lFoot
        {
          OFFSET -0.73152 -45.1104 -5.12064
          CHANNELS 3 Zrotation Xrotation Yrotation
          End Site
          {
            OFFSET 1.1221 -3.69964 12.103
          }
        }
      }
    }
  }
}
MOTION
Frames:	4
Frame Time:	0.03333
-3.428600065410137 69.09449768066406 40.816000044345856 0.46000001952052116 38.10040086507797 8.059299811720848 -14.732200652360916 11.933900266885757 15.81629991531372 3.2527299597859383 -8.602899760007858 4.175690151751041 -7.675800248980522 20.613599717617035 -16.861700266599655 18.647599518299103 -33.485300838947296 -28.676199316978455 0.0 0.0 0.0 0.0 0.0 0.0 0.0 0.0 0.0 23.961299657821655 -27.990699112415314 45.85339844226837 -7.545029819011688 -2.777859941124916 13.27139988541603 -1.9726400077342987 36.51650011539459 5.973190292716026 5.10311792822904e-10 3.785771696129814e-09 5.88329385209363e-10 8.914469162846217e-10 6.543245945067611e-09 1.000159954855917e-09 5.10311792822904e-10 3.785771696129814e-09 5.88329385209363e-10 7.7309102565050125 5.474880114197731 0.41731400415301323 5.10311792822904e-10 3.785771696129814e-09 5.88329385209363e-10 2.905540131032467 0.9651830233633518 0.102901995414868 5.10311792822904e-10 3.785771696129814e-09 5.88329385209363e-10 10.27859978377819 0.7318009994924068 0.025912300043273717 5.10311792822904e-10 3.785771696129814e-09 5.88329385209363e-10 2.221670038998127 -0.733487019315362 -0.2089200052432716 0.0 0.0 0.0 -112.04000115394592 49.71270024776459 50.11620104312897 27.746800482273102 -41.58269941806793 -86.80799961090088 5.448269918560982 -53.24380159378052 10.845500081777573 7.737810392427491e-10 9.310952009400353e-10 -4.3229420043644495e-10 1.354436562905903e-09 1.596163201611489e-09 -7.213429853436537e-10 7.737810392427491e-10 9.310952009400353e-10 -4.3229420043644495e-10 -7.7309102565050125 5.474880114197731 -0.41731400415301323 7.737810392427491e-10 9.310952009400353e-10 -4.3229420043644495e-10 -2.905540131032467 0.9651830233633518 -0.102901995414868 7.737810392427491e-10 9.310952009400353e-10 -4.3229420043644495e-10 -10.27859978377819 0.7318009994924068 -0.025912300043273717 7.737810392427491e-10 9.310952009400353e-10 -4.3229420043644495e-10 -2.221670038998127 -0.733487019315362 0.2089200052432716 0.0 0.0 0.0 2.1729400008916855 -20.553299635648727 -9.478040188550949 -3.9051199704408646 77.66850113868713 4.474000073969364 -5.375379882752895 -4.869559854269028 -19.02109980583191 0.0 0.0 0.0 -11.777999550104141 -53.81779968738556 -18.279100209474564 2.282229959964752 70.32600224018097 -2.1445300430059433 4.133769907057285 -20.429499596357346 8.862660303711891
-3.296700067818165 69.76419830322266 41.68010002374649 0.5532999895513058 36.12560033798218 7.406000196933746 -16.654600203037262 13.999500274658203 16.2151001393795 3.7575599178671837 -8.816899806261063 4.181449860334396 -7.480550184845924 20.432400405406952 -16.403499841690063 19.113399982452393 -34.76139932870865 -27.507898807525635 0.0 0.0 0.0 0.0 0.0 0.0 0.0 0.0 0.0 24.55480009317398 -27.562500536441803 48.26469898223877 -7.539080008864403 -2.7747400291264057 13.260700553655624 -1.9165199808776379 36.09429895877838 5.8803000301122665 4.015987542516086e-10 4.108073881070595e-09 8.748202162678353e-10 7.098321930243401e-10 7.146923053369392e-09 1.5015189092082437e-09 4.015987542516086e-10 4.108073881070595e-09 8.748202162678353e-10 7.7309102565050125 5.474880114197731 0.41731400415301323 4.015987542516086e-10 4.108073881070595e-09 8.748202162678353e-10 2.905540131032467 0.9651830233633518 0.102901995414868 4.015987542516086e-10 4.108073881070595e-09 8.748202162678353e-10 10.27859978377819 0.7318009994924068 0.025912300043273717 4.015987542516086e-10 4.108073881070595e-09 8.748202162678353e-10 2.221670038998127 -0.733487019315362 -0.2089200052432716 0.0 0.0 0.0 -112.62199759483337 50.80399990081787 50.43350100517273 27.746899724006653 -41.581599712371826 -86.8062025308609 5.395119935274124 -53.07570219039917 10.778900161385536 5.74260639041313e-10 1.1817746781161986e-09 -5.115907697472721e-10 1.014228701023967e-09 2.0463630789890885e-09 -8.72262262419099e-10 5.74260639041313e-10 1.1817746781161986e-09 -5.115907697472721e-10 -7.7309102565050125 5.474880114197731 -0.41731400415301323 5.74260639041313e-10 1.1817746781161986e-09 -5.115907697472721e-10 -2.905540131032467 0.9651830233633518 -0.102901995414868 5.74260639041313e-10 1.1817746781161986e-09 -5.115907697472721e-10 -10.27859978377819 0.7318009994924068 -0.025912300043273717 5.74260639041313e-10 1.1817746781161986e-09 -5.115907697472721e-10 -2.221670038998127 -0.733487019315362 0.2089200052432716 0.0 0.0 0.0 -1.4795299619436264 -28.125201165676117 -12.30850026011467 -20.329899787902832 87.10159957408905 20.776499658823013 -4.355950020253658 -4.456899985671043 -14.623500108718872 0.0 0.0 0.0 -9.889450147747993 -51.64640128612518 -15.845600366592407 2.0813400484621525 68.92900049686432 -1.9077399373054504 4.628690108656883 -20.16550049185753 10.04210002720356
-2.9846000745892525 70.46489715576172 42.68989998102188 0.7604999653995037 34.02169972658157 6.346099823713303 -18.660600185394287 16.61929965019226 16.682999432086945 4.126809909939766 -9.131720066070557 4.1638099774718285 -7.418430224061012 20.367700159549713 -15.873000472784042 19.44189950823784 -35.901300609111786 -26.240600645542145 0.0 0.0 0.0 0.0 0.0 0.0 0.0 0.0 0.0 25.008299946784973 -26.829299926757812 51.08299791812897 -7.634840235114098 -2.8230900317430496 13.434999883174896 -1.7563200183212757 34.7966006398201 5.604089833796024 -8.824940778140444e-11 5.525180313270539e-10 3.9904080040287226e-10 -1.4836132322670892e-10 9.873701856122352e-10 6.957634468562901e-10 -8.824940778140444e-11 5.525180313270539e-10 3.9904080040287226e-10 7.7309102565050125 5.474880114197731 0.41731400415301323 -8.824940778140444e-11 5.525180313270539e-10 3.9904080040287226e-10 2.905540131032467 0.9651830233633518 0.102901995414868 -8.824940778140444e-11 5.525180313270539e-10 3.9904080040287226e-10 10.27859978377819 0.7318009994924068 0.025912300043273717 -8.824940778140444e-11 5.525180313270539e-10 3.9904080040287226e-10 2.221670038998127 -0.733487019315362 -0.2089200052432716 0.0 0.0 0.0 -113.00999522209167 52.027097940444946 50.72369992733002 27.741100788116455 -41.60410076379776 -86.84940218925476 5.432300046086311 -53.19229781627655 10.825400277972221 1.0091127933264943e-09 3.4788172342814505e-10 1.0487610779819079e-10 1.7368506632919889e-09 5.627498467219993e-10 2.0975221559638157e-10 1.0091127933264943e-09 3.4788172342814505e-10 1.0487610779819079e-10 -7.7309102565050125 5.474880114197731 -0.41731400415301323 1.0091127933264943e-09 3.4788172342814505e-10 1.0487610779819079e-10 -2.905540131032467 0.9651830233633518 -0.102901995414868 1.0091127933264943e-09 3.4788172342814505e-10 1.0487610779819079e-10 -10.27859978377819 0.7318009994924068 -0.025912300043273717 1.0091127933264943e-09 3.4788172342814505e-10 1.0487610779819079e-10 -2.221670038998127 -0.733487019315362 0.2089200052432716 0.0 0.0 0.0 -6.774449944496155 -35.52079975605011 -16.819699555635452 -168.86699795722961 83.86650145053864 169.2710030078888 -4.7074199840426445 -5.2266601100564 -14.35419961810112 0.0 0.0 0.0 -8.352769687771797 -48.51080238819122 -13.29069972038269 1.8425999768078327 67.28129804134369 -1.7139199934899807 5.2403199300169945 -19.798599779605865 11.446499973535538
-2.6903000846505165 71.17949676513672 43.844099938869476 0.9810000099241734 31.980299949645996 4.9768998473882675 -19.9052993953228 19.278099685907364 16.965200006961823 4.1371699422597885 -9.525450244545937 4.097340144217014 -7.359659671783447 20.032200068235397 -15.275400280952454 19.44209933280945 -36.53880000114441 -24.967299699783325 0.0 0.0 0.0 0.0 0.0 0.0 0.0 0.0 0.0 25.117599964141846 -25.947400331497192 53.76430034637451 -7.805680185556412 -2.9111600294709206 13.745399862527847 -1.6888399980962276 34.20889914035797 5.482909977436066 -4.476419235288631e-10 -3.325340003357269e-10 7.392486622848082e-10 -7.584333161503309e-10 -4.706635081674904e-10 1.2917666936118621e-09 -4.476419235288631e-10 -3.325340003357269e-10 7.392486622848082e-10 7.7309102565050125 5.474880114197731 0.41731400415301323 -4.476419235288631e-10 -3.325340003357269e-10 7.392486622848082e-10 2.905540131032467 0.9651830233633518 0.102901995414868 -4.476419235288631e-10 -3.325340003357269e-10 7.392486622848082e-10 10.27859978377819 0.7318009994924068 0.025912300043273717 -4.476419235288631e-10 -3.325340003357269e-10 7.392486622848082e-10 2.221670038998127 -0.733487019315362 -0.2089200052432716 0.0 0.0 0.0 -113.10300350189209 53.150197863578796 50.80550193786621 27.77339994907379 -41.47680044174194 -86.6076010465622 5.559660047292709 -53.588401079177856 10.984299704432487 1.2892087397631258e-09 2.1998403099132702e-10 3.581135388230905e-10 2.2100721253082156e-09 3.069544618483633e-10 6.625100468227174e-10 1.2892087397631258e-09 2.1998403099132702e-10 3.581135388230905e-10 -7.7309102565050125 5.474880114197731 -0.41731400415301323 1.2892087397631258e-09 2.1998403099132702e-10 3.581135388230905e-10 -2.905540131032467 0.9651830233633518 -0.102901995414868 1.2892087397631258e-09 2.1998403099132702e-10 3.581135388230905e-10 -10.27859978377819 0.7318009994924068 -0.025912300043273717 1.2892087397631258e-09 2.1998403099132702e-10 3.581135388230905e-10 -2.221670038998127 -0.733487019315362 0.2089200052432716 0.0 0.0 0.0 -12.999300509691238 -43.240199983119965 -22.615799009799957 -174.28200244903564 76.65709912776947 174.66800451278687 -4.9688200280070305 -5.531209856271744 -14.230300337076187 0.0 0.0 0.0 -6.870839819312096 -45.304500460624695 -10.975699871778488 1.6319999657571316 65.79039752483368 -1.6523599438369274 5.8799198269844055 -19.600600451231003 12.803500592708588
